HIERARCHY
ROOT Hips
{
    OFFSET 0.000000 0.000000 0.000000
    CHANNELS 6 Xposition Yposition Zposition Zrotation Xrotation Yrotation
        JOINT Chest
        {
            OFFSET -0.000000 34.099812 -0.000000
            CHANNELS 3 Zrotation Xrotation Yrotation
            JOINT Neck
            {
                OFFSET -0.000000 25.785578 0.000000
                CHANNELS 3 Zrotation Xrotation Yrotation
                JOINT Head
                {
                    OFFSET -0.000000 11.061110 0.000000
                    CHANNELS 3 Zrotation Xrotation Yrotation
                    End Site
                    {
                        OFFSET -0.000000 17.094444 0.000000
                    }
                }
            }
            JOINT LeftCollar
            {
                OFFSET -0.000000 25.785578 0.000000
                CHANNELS 3 Zrotation Xrotation Yrotation
                JOINT LeftShoulder
                {
                    OFFSET 19.000000 -0.000000 0.000000
                    CHANNELS 3 Zrotation Xrotation Yrotation
                    JOINT LeftElbow
                    {
                        OFFSET 29.227484 0.000000 0.000000
                        CHANNELS 3 Zrotation Xrotation Yrotation
                        JOINT LeftWrist
                        {
                            OFFSET 22.377386 0.000000 0.000000
                            CHANNELS 3 Zrotation Xrotation Yrotation
                            End Site
                            {
                                OFFSET 0.000000 -15.083334 0.000000
                            }
                        }
                    }
                }
            }
            JOINT RightCollar
            {
                OFFSET -0.000000 25.785578 0.000000
                CHANNELS 3 Zrotation Xrotation Yrotation
                JOINT RightShoulder
                {
                    OFFSET -19.000000 0.000000 0.000000
                    CHANNELS 3 Zrotation Xrotation Yrotation
                    JOINT RightElbow
                    {
                        OFFSET -29.227484 0.000000 0.000000
                        CHANNELS 3 Zrotation Xrotation Yrotation
                        JOINT RightWrist
                        {
                            OFFSET -22.377386 0.000000 0.000000
                            CHANNELS 3 Zrotation Xrotation Yrotation
                            End Site
                            {
                                OFFSET -0.000000 -15.083334 0.000000
                            }
                        }
                    }
                }
            }
        }
    JOINT LeftHip
    {
        OFFSET 12.066666 0.000000 0.000000
        CHANNELS 3 Zrotation Xrotation Yrotation
        JOINT LeftKnee
        {
            OFFSET -0.000000 -38.619030 0.000000
            CHANNELS 3 Zrotation Xrotation Yrotation
            JOINT LeftAnkle
            {
                OFFSET -0.000000 -42.566540 0.000000
                CHANNELS 3 Zrotation Xrotation Yrotation
                End Site
                {
                    OFFSET -0.000000 -5.027778 17.094444
                }
            }
        }
    }
    JOINT RightHip
    {
        OFFSET -12.066666 0.000000 0.000000
        CHANNELS 3 Zrotation Xrotation Yrotation
        JOINT RightKnee
        {
            OFFSET -0.000000 -38.619030 0.000000
            CHANNELS 3 Zrotation Xrotation Yrotation
            JOINT RightAnkle
            {
                OFFSET -0.000000 -42.566540 0.000000
                CHANNELS 3 Zrotation Xrotation Yrotation
                End Site
                {
                    OFFSET -0.000000 -5.027778 17.094444
                }
            }
        }
    }
}
MOTION
Frames:    14
Frame Time:    0.010000
-39.272423    89.658783    -87.741959    -7.141777    -5.587851    76.771858    11.846304    23.716713    -7.163016    -2.202213    -2.849456    -26.644648    10.855603    -15.173697    -25.139954    -7.844892    -0.292083    4.367870    -67.932510    13.323317    -28.149796    -30.753389    24.621147    -78.592308    157.011581    0.639387    -11.312140    25.266018    4.741211    21.421900    30.570532    32.082672    24.332047    3.538117    0.781220    24.731333    -164.465485    -16.192810    -32.811962    3.240489    -13.381249    -3.273561    -9.860203    20.072090    3.230218    1.114751    -16.418751    37.725639    8.893800    -33.230286    4.309575    -6.308402    39.854828    15.284987    5.835345    -21.422041    -5.670266    
-39.265804    89.798744    -87.523804    -7.300868    -5.858236    77.417038    12.212929    23.758862    -7.035555    -2.205503    -2.821072    -26.464779    11.115901    -14.533429    -24.988619    -7.871968    -0.322249    4.521650    -67.648018    13.942998    -28.520002    -29.898834    24.255205    -79.133987    156.820740    0.969348    -11.418903    25.219946    4.820544    21.695812    30.503124    32.204372    24.639095    3.292095    0.700014    24.204407    -164.804276    -15.718402    -33.689453    3.348964    -13.294183    -3.439600    -9.300241    19.666586    2.668623    1.118632    -16.088099    37.663864    9.571959    -32.960918    5.699829    -5.674272    37.467106    15.359341    6.027822    -21.020832    -5.891911    
-39.246044    89.922409    -87.304237    -7.468503    -6.087645    78.066032    12.540719    23.745237    -6.865784    -2.182589    -2.752254    -26.317678    11.319986    -13.942870    -24.876657    -7.881926    -0.294979    4.619638    -67.450661    14.407970    -28.860144    -29.277006    24.044449    -79.503342    156.683472    1.233676    -11.540636    25.212166    4.888099    21.870958    30.360569    32.463100    25.030418    2.973362    0.601849    23.660505    -165.099640    -15.165195    -34.581623    3.421448    -13.231424    -3.599998    -8.758084    19.275177    2.159436    1.063682    -15.832753    37.563000    10.177622    -32.674667    7.193809    -5.046779    35.044804    15.366400    6.095403    -20.456846    -6.158179    
-39.214314    90.026321    -87.087433    -7.644164    -6.266897    78.722977    12.820234    23.678728    -6.659529    -2.141712    -2.655678    -26.208979    11.476930    -13.390994    -24.807415    -7.864942    -0.333295    4.663857    -67.368034    14.805114    -29.067736    -28.720793    23.821480    -79.978592    156.282227    1.334080    -11.885017    25.236658    4.940567    21.968079    30.168636    32.809513    25.481770    2.610193    0.492997    23.111380    -165.388153    -14.545143    -35.488102    3.449612    -13.200748    -3.769082    -8.248702    18.904314    1.741918    0.955323    -15.647980    37.402931    10.689677    -32.386047    8.765597    -4.443344    32.615978    15.315657    6.042277    -19.691072    -6.472556    
-39.171108    90.107635    -86.877037    -7.824610    -6.389298    79.392403    13.043886    23.564308    -6.421764    -2.088398    -2.538035    -26.145409    11.595086    -12.872786    -24.786623    -7.839323    -0.303138    4.652946    -67.319191    15.080287    -29.264416    -28.427786    23.846581    -80.213989    156.173492    1.474174    -12.066157    25.290489    4.962225    22.007816    29.961840    33.198273    25.953760    2.220506    0.396725    22.575434    -165.682114    -13.859301    -36.401093    3.427847    -13.205041    -3.962701    -7.787150    18.559578    1.445101    0.804485    -15.522106    37.171001    11.089063    -32.104939    10.378722    -3.880200    30.210960    15.255548    5.896424    -18.711395    -6.866644    
-39.114731    90.163948    -86.675392    -8.001662    -6.452478    80.077629    13.207494    23.414320    -6.156261    -2.028938    -2.403813    -26.129383    11.685533    -12.387111    -24.814402    -7.806830    -0.328579    4.593703    -67.313408    15.336268    -29.363754    -28.213179    23.872387    -80.568787    155.949509    1.382872    -12.399403    25.339312    5.012068    22.023161    29.814638    33.513668    26.397608    1.893460    0.333529    22.018225    -166.015137    -13.226323    -37.302719    3.355620    -13.238915    -4.184765    -7.384285    18.248646    1.264974    0.626164    -15.442697    36.871861    11.362550    -31.832371    11.990872    -3.371166    27.861931    15.262533    5.702283    -17.542456    -7.397604    
-39.041679    90.193542    -86.483376    -8.163277    -6.458516    80.780594    13.311115    23.248047    -5.866949    -1.965020    -2.260197    -26.163078    11.756136    -11.935183    -24.891060    -7.784914    -0.326837    4.493207    -67.280952    15.534557    -29.451235    -28.216587    24.135185    -80.757896    156.146713    1.192960    -12.533585    25.408978    4.997465    22.036169    29.685692    33.803841    26.809185    1.552690    0.268026    21.541014    -166.346909    -12.544980    -38.155499    3.238105    -13.290472    -4.424307    -7.046104    17.981894    1.160860    0.437318    -15.399825    36.529076    11.504642    -31.561613    13.555407    -2.927261    25.601433    15.408332    5.502783    -16.242546    -8.123567    
-38.948338    90.195862    -86.301315    -8.296889    -6.411057    81.503380    13.357046    23.086077    -5.559684    -1.894076    -2.115801    -26.247427    11.810874    -11.520045    -25.016951    -7.782005    -0.286929    4.360234    -67.195061    15.695299    -29.565262    -28.502527    24.569099    -80.815063    156.781647    0.718100    -12.533895    25.437212    5.045830    22.068821    29.717503    33.901211    27.117245    1.382205    0.231640    21.024662    -166.744476    -12.077507    -38.955368    3.081750    -13.346831    -4.664932    -6.774096    17.770683    1.074514    0.253734    -15.386757    36.175831    11.514592    -31.284523    15.019235    -2.555580    23.463415    15.740056    5.317699    -14.892957    -9.084713    
-38.831944    90.171883    -86.130066    -8.391521    -6.312696    82.249283    13.346197    22.947569    -5.242882    -1.800974    -1.979797    -26.383736    11.837023    -11.153052    -25.192867    -7.796750    -0.268195    4.202671    -67.057755    15.864561    -29.676685    -28.968538    25.115334    -80.843246    157.634628    -0.148422    -12.586848    25.443331    5.091004    22.124126    29.803692    33.862865    27.388426    1.237615    0.197849    20.595594    -167.148895    -11.619484    -39.685883    2.889481    -13.396788    -4.893671    -6.565247    17.624479    0.950303    0.088649    -15.398094    35.843685    11.392895    -30.995317    16.322311    -2.257623    21.482607    16.268539    5.126792    -13.577323    -10.285497    
-38.691154    90.123955    -85.970673    -8.440873    -6.165329    83.022484    13.281501    22.845785    -4.928292    -1.665303    -1.855889    -26.564333    11.812084    -10.856260    -25.411125    -7.825572    -0.298320    4.035278    -66.882652    16.041874    -29.766380    -29.612793    25.786976    -80.820717    158.618713    -1.245438    -12.759809    25.453026    5.064732    22.211546    29.967190    33.759907    27.580381    1.093467    0.191358    20.265022    -167.567856    -11.120806    -40.358047    2.661394    -13.434295    -5.101886    -6.411913    17.550970    0.745060    -0.046337    -15.428435    35.554493    11.142918    -30.693707    17.402578    -2.029373    19.693188    16.963736    4.863113    -12.354084    -11.681120    
-38.527958    90.055534    -85.822937    -8.448422    -5.972336    83.825867    13.168038    22.784872    -4.627341    -1.458108    -1.750866    -26.783363    11.700105    -10.652592    -25.666534    -7.865767    -0.273050    3.859615    -66.669533    16.138214    -29.916574    -30.535183    26.671917    -80.602577    159.670166    -2.338646    -13.143271    25.415968    5.086637    22.335676    30.294462    33.482964    27.672518    1.076449    0.221617    19.927170    -168.078796    -10.760755    -41.004749    2.399824    -13.465563    -5.281684    -6.304044    17.558495    0.430300    -0.138407    -15.469782    35.318157    10.776558    -30.390928    18.203712    -1.863281    18.129438    17.761097    4.436253    -11.239597    -13.177627    
-38.350502    89.971672    -85.684441    -8.432280    -5.739859    84.660652    13.013702    22.754663    -4.348196    -1.161125    -1.671090    -27.032772    11.477550    -10.554594    -25.952089    -7.906212    -0.241379    3.684488    -66.460831    16.180382    -30.088039    -31.537062    27.537621    -80.487160    160.190445    -3.413824    -14.181900    25.351978    5.108195    22.499538    30.669317    33.103939    27.745592    1.066079    0.175830    19.687555    -168.654861    -10.410277    -41.620789    2.112167    -13.517297    -5.435975    -6.234433    17.657827    0.001336    -0.170737    -15.508612    35.133965    10.316749    -30.117769    18.678413    -1.751000    16.829046    18.586224    3.776450    -10.216270    -14.657043    
-38.175312    89.879623    -85.550934    -8.428801    -5.476337    85.526855    12.829131    22.725491    -4.094615    -0.775985    -1.622920    -27.304739    11.146773    -10.552710    -26.260868    -7.942955    -0.283338    3.530976    -66.263176    16.243502    -30.228769    -32.400227    28.267145    -80.657303    160.007294    -4.277021    -15.963748    25.261164    5.127226    22.714628    31.124767    32.629688    27.772034    1.027485    0.204083    19.521601    -169.247284    -9.955681    -42.258953    1.809021    -13.641833    -5.595636    -6.204246    17.859512    -0.509417    -0.123952    -15.523624    34.994820    9.793912    -29.931814    18.788450    -1.684503    15.835236    19.391111    2.860146    -9.256897    -16.018749    
-38.026058    89.788528    -85.417046    -8.491667    -5.191250    86.423851    12.624572    22.648468    -3.866761    -0.321897    -1.612521    -27.594175    10.735270    -10.618189    -26.588575    -7.991179    -0.251940    3.420658    -65.993202    16.303217    -30.496889    -33.200081    29.005695    -80.866447    159.616241    -4.660996    -18.095760    25.141356    5.144825    22.989769    31.661057    32.063931    27.752392    0.998194    0.172744    19.424006    -169.946228    -9.522094    -42.910069    1.499978    -13.914360    -5.827715    -6.225667    18.171490    -1.034776    0.017283    -15.492808    34.898411    9.238300    -29.915558    18.509068    -1.656220    15.190953    20.171238    1.710852    -8.342262    -17.203562    
